<svg width="19" height="20" viewBox="0 0 19 20" fill="none" xmlns="http://www.w3.org/2000/svg">
<path d="M1.22461 9.46494L8.40586 2.56994C8.91265 2.07789 9.51577 1.68688 10.1805 1.41938C10.8453 1.15188 11.5586 1.01318 12.2794 1.01125C13.0002 1.00932 13.7142 1.1442 14.3805 1.40813C15.0468 1.67207 15.6522 2.05984 16.1619 2.54917C16.6715 3.0385 17.0754 3.61971 17.3502 4.2594C17.6251 4.89909 17.7655 5.58462 17.7633 6.27658C17.7612 6.96854 17.6167 7.65328 17.3379 8.29141C17.0592 8.92954 16.6518 9.50848 16.1392 9.99494L7.85378 17.9499C7.17001 18.6064 6.24264 18.9751 5.27565 18.9751C4.30867 18.9751 3.38129 18.6064 2.69753 17.9499C2.01376 17.2935 1.62963 16.4032 1.62963 15.4749C1.62963 14.5466 2.01376 13.6563 2.69753 12.9999L10.985 5.04594C11.3298 4.73213 11.7885 4.55991 12.2635 4.56597C12.7386 4.57203 13.1924 4.75589 13.5283 5.07838C13.8642 5.40088 14.0558 5.83653 14.0621 6.29257C14.0684 6.7486 13.889 7.18899 13.5621 7.51994L6.37982 14.4139" stroke="#18191F" stroke-width="2" stroke-linecap="round" stroke-linejoin="round"/>
</svg>
