<svg width="17" height="16" viewBox="0 0 17 16" fill="none" xmlns="http://www.w3.org/2000/svg">
<path d="M3.1001 4.79999C3.36531 4.79999 3.61967 4.69463 3.8072 4.50709C3.99474 4.31956 4.1001 4.0652 4.1001 3.79999C4.1001 3.53477 3.99474 3.28042 3.8072 3.09288C3.61967 2.90534 3.36531 2.79999 3.1001 2.79999C2.83488 2.79999 2.58053 2.90534 2.39299 3.09288C2.20545 3.28042 2.1001 3.53477 2.1001 3.79999C2.1001 4.0652 2.20545 4.31956 2.39299 4.50709C2.58053 4.69463 2.83488 4.79999 3.1001 4.79999ZM6.1001 3.79999C6.1001 3.64086 6.16331 3.48825 6.27583 3.37572C6.38836 3.2632 6.54097 3.19999 6.7001 3.19999H14.3001C14.4592 3.19999 14.6118 3.2632 14.7244 3.37572C14.8369 3.48825 14.9001 3.64086 14.9001 3.79999C14.9001 3.95912 14.8369 4.11173 14.7244 4.22425C14.6118 4.33677 14.4592 4.39999 14.3001 4.39999H6.7001C6.54097 4.39999 6.38836 4.33677 6.27583 4.22425C6.16331 4.11173 6.1001 3.95912 6.1001 3.79999ZM6.7001 7.19999C6.54097 7.19999 6.38836 7.2632 6.27583 7.37572C6.16331 7.48825 6.1001 7.64086 6.1001 7.79999C6.1001 7.95912 6.16331 8.11173 6.27583 8.22425C6.38836 8.33677 6.54097 8.39999 6.7001 8.39999H14.3001C14.4592 8.39999 14.6118 8.33677 14.7244 8.22425C14.8369 8.11173 14.9001 7.95912 14.9001 7.79999C14.9001 7.64086 14.8369 7.48825 14.7244 7.37572C14.6118 7.2632 14.4592 7.19999 14.3001 7.19999H6.7001ZM9.9001 11.2C9.74097 11.2 9.58836 11.2632 9.47583 11.3757C9.36331 11.4882 9.3001 11.6409 9.3001 11.8C9.3001 11.9591 9.36331 12.1117 9.47583 12.2243C9.58836 12.3368 9.74097 12.4 9.9001 12.4H14.3001C14.4592 12.4 14.6118 12.3368 14.7244 12.2243C14.8369 12.1117 14.9001 11.9591 14.9001 11.8C14.9001 11.6409 14.8369 11.4882 14.7244 11.3757C14.6118 11.2632 14.4592 11.2 14.3001 11.2H9.9001ZM4.1001 7.79999C4.1001 8.0652 3.99474 8.31956 3.8072 8.50709C3.61967 8.69463 3.36531 8.79999 3.1001 8.79999C2.83488 8.79999 2.58053 8.69463 2.39299 8.50709C2.20545 8.31956 2.1001 8.0652 2.1001 7.79999C2.1001 7.53477 2.20545 7.28042 2.39299 7.09288C2.58053 6.90534 2.83488 6.79999 3.1001 6.79999C3.36531 6.79999 3.61967 6.90534 3.8072 7.09288C3.99474 7.28042 4.1001 7.53477 4.1001 7.79999ZM6.3001 12.8C6.56531 12.8 6.81967 12.6946 7.0072 12.5071C7.19474 12.3196 7.3001 12.0652 7.3001 11.8C7.3001 11.5348 7.19474 11.2804 7.0072 11.0929C6.81967 10.9053 6.56531 10.8 6.3001 10.8C6.03488 10.8 5.78053 10.9053 5.59299 11.0929C5.40545 11.2804 5.3001 11.5348 5.3001 11.8C5.3001 12.0652 5.40545 12.3196 5.59299 12.5071C5.78053 12.6946 6.03488 12.8 6.3001 12.8Z" fill="white"/>
</svg>
