<svg width="32" height="32" viewBox="0 0 32 32" fill="none" xmlns="http://www.w3.org/2000/svg">
<path d="M8.7849 23.2151C5.06503 19.488 2.20431 14.9933 0.402805 10.0452C-0.588309 7.33998 0.31978 4.36836 2.35736 2.33078L3.61831 1.07157C3.9573 0.731883 4.35996 0.462392 4.80324 0.278519C5.24652 0.0946457 5.7217 0 6.2016 0C6.6815 0 7.15669 0.0946457 7.59997 0.278519C8.04324 0.462392 8.4459 0.731883 8.7849 1.07157L11.7375 4.02416C12.0772 4.36315 12.3467 4.76581 12.5305 5.20909C12.7144 5.65237 12.8091 6.12756 12.8091 6.60746C12.8091 7.08735 12.7144 7.56254 12.5305 8.00582C12.3467 8.4491 12.0772 8.85176 11.7375 9.19075L11.011 9.91723C10.7202 10.208 10.4896 10.5531 10.3322 10.933C10.1748 11.3129 10.0938 11.72 10.0938 12.1312C10.0938 12.5424 10.1748 12.9496 10.3322 13.3295C10.4896 13.7094 10.7202 14.0545 11.011 14.3452L17.653 20.989C17.9438 21.2798 18.2889 21.5105 18.6688 21.6678C19.0487 21.8252 19.4559 21.9062 19.867 21.9062C20.2782 21.9062 20.6854 21.8252 21.0653 21.6678C21.4452 21.5105 21.7903 21.2798 22.0811 20.989L22.8093 20.2625C23.1483 19.9229 23.5509 19.6534 23.9942 19.4695C24.4375 19.2856 24.9127 19.191 25.3926 19.191C25.8725 19.191 26.3476 19.2856 26.7909 19.4695C27.2342 19.6534 27.6369 19.9229 27.9758 20.2625L30.9284 23.2151C31.2681 23.5541 31.5376 23.9568 31.7215 24.4001C31.9054 24.8433 32 25.3185 32 25.7984C32 26.2783 31.9054 26.7535 31.7215 27.1968C31.5376 27.6401 31.2681 28.0427 30.9284 28.3817L29.6692 29.6409C27.6316 31.6803 24.66 32.5883 21.9548 31.5972C17.0067 29.7957 12.512 26.935 8.7849 23.2151Z" fill="#0D1216"/>
</svg>
