<svg width="28" height="26" viewBox="0 0 28 26" fill="none" xmlns="http://www.w3.org/2000/svg">
<path d="M21.0003 0.666626H7.00033C5.32062 0.666626 3.70971 1.33389 2.52198 2.52162C1.33425 3.70935 0.666992 5.32025 0.666992 6.99996V19C0.666992 19.8317 0.830809 20.6552 1.14909 21.4236C1.46737 22.192 1.93388 22.8902 2.52198 23.4783C3.70971 24.666 5.32062 25.3333 7.00033 25.3333H21.0003C22.6789 25.3298 24.2878 24.6614 25.4748 23.4744C26.6617 22.2874 27.3301 20.6786 27.3337 19V6.99996C27.3301 5.32134 26.6617 3.71248 25.4748 2.52551C24.2878 1.33854 22.6789 0.670149 21.0003 0.666626ZM16.1337 11.76C15.4777 12.1341 14.7355 12.3308 13.9803 12.3308C13.2251 12.3308 12.483 12.1341 11.827 11.76L2.69366 6.51996C2.81176 5.46036 3.31634 4.48149 4.11088 3.77058C4.90543 3.05967 5.93417 2.66663 7.00033 2.66663H21.0003C22.0657 2.66955 23.0928 3.0636 23.8867 3.77396C24.6807 4.48432 25.1861 5.46151 25.307 6.51996L16.1337 11.76Z" fill="black"/>
</svg>
