<svg width="17" height="16" viewBox="0 0 17 16" fill="none" xmlns="http://www.w3.org/2000/svg">
<path d="M4.16659 11C4.52021 11 4.85935 11.1405 5.10939 11.3905C5.35944 11.6406 5.49992 11.9797 5.49992 12.3333C5.49992 12.687 5.35944 13.0261 5.10939 13.2762C4.85935 13.5262 4.52021 13.6667 4.16659 13.6667C3.81296 13.6667 3.47382 13.5262 3.22378 13.2762C2.97373 13.0261 2.83325 12.687 2.83325 12.3333C2.83325 11.9797 2.97373 11.6406 3.22378 11.3905C3.47382 11.1405 3.81296 11 4.16659 11ZM8.49992 11C8.85354 11 9.19268 11.1405 9.44273 11.3905C9.69278 11.6406 9.83325 11.9797 9.83325 12.3333C9.83325 12.687 9.69278 13.0261 9.44273 13.2762C9.19268 13.5262 8.85354 13.6667 8.49992 13.6667C8.1463 13.6667 7.80716 13.5262 7.55711 13.2762C7.30706 13.0261 7.16659 12.687 7.16659 12.3333C7.16659 11.9797 7.30706 11.6406 7.55711 11.3905C7.80716 11.1405 8.1463 11 8.49992 11ZM12.8333 11C13.1869 11 13.526 11.1405 13.7761 11.3905C14.0261 11.6406 14.1666 11.9797 14.1666 12.3333C14.1666 12.687 14.0261 13.0261 13.7761 13.2762C13.526 13.5262 13.1869 13.6667 12.8333 13.6667C12.4796 13.6667 12.1405 13.5262 11.8904 13.2762C11.6404 13.0261 11.4999 12.687 11.4999 12.3333C11.4999 11.9797 11.6404 11.6406 11.8904 11.3905C12.1405 11.1405 12.4796 11 12.8333 11ZM4.16659 6.66668C4.52021 6.66668 4.85935 6.80715 5.10939 7.0572C5.35944 7.30725 5.49992 7.64639 5.49992 8.00001C5.49992 8.35363 5.35944 8.69277 5.10939 8.94282C4.85935 9.19287 4.52021 9.33334 4.16659 9.33334C3.81296 9.33334 3.47382 9.19287 3.22378 8.94282C2.97373 8.69277 2.83325 8.35363 2.83325 8.00001C2.83325 7.64639 2.97373 7.30725 3.22378 7.0572C3.47382 6.80715 3.81296 6.66668 4.16659 6.66668ZM8.49992 6.66668C8.85354 6.66668 9.19268 6.80715 9.44273 7.0572C9.69278 7.30725 9.83325 7.64639 9.83325 8.00001C9.83325 8.35363 9.69278 8.69277 9.44273 8.94282C9.19268 9.19287 8.85354 9.33334 8.49992 9.33334C8.1463 9.33334 7.80716 9.19287 7.55711 8.94282C7.30706 8.69277 7.16659 8.35363 7.16659 8.00001C7.16659 7.64639 7.30706 7.30725 7.55711 7.0572C7.80716 6.80715 8.1463 6.66668 8.49992 6.66668ZM12.8333 6.66668C13.1869 6.66668 13.526 6.80715 13.7761 7.0572C14.0261 7.30725 14.1666 7.64639 14.1666 8.00001C14.1666 8.35363 14.0261 8.69277 13.7761 8.94282C13.526 9.19287 13.1869 9.33334 12.8333 9.33334C12.4796 9.33334 12.1405 9.19287 11.8904 8.94282C11.6404 8.69277 11.4999 8.35363 11.4999 8.00001C11.4999 7.64639 11.6404 7.30725 11.8904 7.0572C12.1405 6.80715 12.4796 6.66668 12.8333 6.66668ZM4.16659 2.33334C4.52021 2.33334 4.85935 2.47382 5.10939 2.72387C5.35944 2.97392 5.49992 3.31305 5.49992 3.66668C5.49992 4.0203 5.35944 4.35944 5.10939 4.60949C4.85935 4.85953 4.52021 5.00001 4.16659 5.00001C3.81296 5.00001 3.47382 4.85953 3.22378 4.60949C2.97373 4.35944 2.83325 4.0203 2.83325 3.66668C2.83325 3.31305 2.97373 2.97392 3.22378 2.72387C3.47382 2.47382 3.81296 2.33334 4.16659 2.33334ZM8.49992 2.33334C8.85354 2.33334 9.19268 2.47382 9.44273 2.72387C9.69278 2.97392 9.83325 3.31305 9.83325 3.66668C9.83325 4.0203 9.69278 4.35944 9.44273 4.60949C9.19268 4.85953 8.85354 5.00001 8.49992 5.00001C8.1463 5.00001 7.80716 4.85953 7.55711 4.60949C7.30706 4.35944 7.16659 4.0203 7.16659 3.66668C7.16659 3.31305 7.30706 2.97392 7.55711 2.72387C7.80716 2.47382 8.1463 2.33334 8.49992 2.33334ZM12.8333 2.33334C13.1869 2.33334 13.526 2.47382 13.7761 2.72387C14.0261 2.97392 14.1666 3.31305 14.1666 3.66668C14.1666 4.0203 14.0261 4.35944 13.7761 4.60949C13.526 4.85953 13.1869 5.00001 12.8333 5.00001C12.4796 5.00001 12.1405 4.85953 11.8904 4.60949C11.6404 4.35944 11.4999 4.0203 11.4999 3.66668C11.4999 3.31305 11.6404 2.97392 11.8904 2.72387C12.1405 2.47382 12.4796 2.33334 12.8333 2.33334Z" fill="#3749A6"/>
</svg>
