<svg width="18" height="18" viewBox="0 0 18 18" fill="none" xmlns="http://www.w3.org/2000/svg">
<path d="M11.6647 11.6647C12.1564 11.173 12.5465 10.5892 12.8126 9.94679C13.0787 9.30433 13.2157 8.61574 13.2157 7.92035C13.2157 7.22495 13.0787 6.53637 12.8126 5.8939C12.5465 5.25144 12.1564 4.66769 11.6647 4.17597C11.173 3.68425 10.5892 3.2942 9.94679 3.02808C9.30433 2.76197 8.61574 2.625 7.92035 2.625C7.22495 2.625 6.53637 2.76197 5.8939 3.02808C5.25144 3.2942 4.66769 3.68425 4.17597 4.17597C3.1829 5.16904 2.625 6.51593 2.625 7.92035C2.625 9.32476 3.1829 10.6717 4.17597 11.6647C5.16904 12.6578 6.51593 13.2157 7.92035 13.2157C9.32476 13.2157 10.6717 12.6578 11.6647 11.6647ZM11.6647 11.6647L15 15" stroke="#929292" stroke-width="1.5" stroke-linecap="round" stroke-linejoin="round"/>
</svg>
