<svg width="42" height="42" viewBox="0 0 42 42" fill="none" xmlns="http://www.w3.org/2000/svg">
<path d="M29.75 15.7535C33.5562 15.7745 35.6178 15.9443 36.9618 17.2883C38.5 18.8265 38.5 21.301 38.5 26.25V28C38.5 32.9508 38.5 35.4253 36.9618 36.9635C35.4253 38.5 32.949 38.5 28 38.5H14C9.051 38.5 6.57475 38.5 5.03825 36.9635C3.5 35.4235 3.5 32.9508 3.5 28V26.25C3.5 21.301 3.5 18.8265 5.03825 17.2883C6.38225 15.9443 8.44375 15.7745 12.25 15.7535" stroke="black" stroke-width="2" stroke-linecap="round"/>
<path d="M21 26.25V3.5M21 3.5L26.25 9.625M21 3.5L15.75 9.625" stroke="black" stroke-width="2" stroke-linecap="round" stroke-linejoin="round"/>
</svg>
